<?xml version="1.0" encoding="UTF-8"?><svg id="Layer_1" xmlns="http://www.w3.org/2000/svg" xmlns:xlink="http://www.w3.org/1999/xlink" viewBox="0 0 324 360"><defs><style>.cls-1,.cls-2{fill:#ff3030;}.cls-1,.cls-3{opacity:.8;}.cls-4{stroke:#333;}.cls-4,.cls-5,.cls-6,.cls-7,.cls-8,.cls-9,.cls-10,.cls-11{fill:none;}.cls-4,.cls-5,.cls-6,.cls-7,.cls-8,.cls-10,.cls-11{stroke-linejoin:round;}.cls-4,.cls-7{stroke-width:1.16px;}.cls-12{fill:#fff;}.cls-13{font-size:14px;}.cls-13,.cls-14,.cls-15{font-family:ArialMT, Arial;}.cls-13,.cls-15{fill:#4d4d4d;}.cls-5{stroke-width:2.13px;}.cls-5,.cls-6,.cls-7,.cls-8{stroke:#000;}.cls-16{letter-spacing:-.02em;}.cls-6,.cls-8{stroke-width:1.07px;}.cls-14{font-size:18px;}.cls-17{clip-path:url(#clippath);}.cls-8,.cls-10,.cls-11{stroke-linecap:round;}.cls-3,.cls-18{fill:#1c86ee;}.cls-15{font-size:14px;}.cls-10{stroke:#ff3030;}.cls-10,.cls-11{stroke-width:.71px;}.cls-11{stroke:#1c86ee;}</style><clipPath id="clippath"><rect class="cls-9" x="54.58" y="5.98" width="263.44" height="285.09"/></clipPath></defs><rect class="cls-12" width="324" height="360"/><rect class="cls-12" width="324" height="360"/><g class="cls-17"><line class="cls-6" x1="126.43" y1="70.02" x2="126.43" y2="23.92"/><line class="cls-6" x1="126.43" y1="116.54" x2="126.43" y2="175.11"/><g><rect class="cls-3" x="81.52" y="70.02" width="89.81" height="46.52"/><rect class="cls-8" x="81.52" y="70.02" width="89.81" height="46.52"/></g><line class="cls-5" x1="81.52" y1="107.82" x2="171.33" y2="107.82"/><line class="cls-6" x1="246.18" y1="41.37" x2="246.18" y2="18.94"/><line class="cls-6" x1="246.18" y1="167.63" x2="246.18" y2="278.11"/><g><rect class="cls-1" x="201.27" y="41.37" width="89.81" height="126.26"/><rect class="cls-8" x="201.27" y="41.37" width="89.81" height="126.26"/></g><line class="cls-5" x1="201.27" y1="73.76" x2="291.08" y2="73.76"/><path class="cls-18" d="M131.5,110.31c0-1.07,.88-1.95,1.96-1.95s1.95,.88,1.95,1.95-.88,1.96-1.95,1.96-1.96-.88-1.96-1.96"/><path class="cls-11" d="M131.5,110.31c0-1.07,.88-1.95,1.96-1.95s1.95,.88,1.95,1.95-.88,1.96-1.95,1.96-1.96-.88-1.96-1.96"/><path class="cls-18" d="M123.09,170.12c0-1.07,.88-1.95,1.96-1.95s1.95,.88,1.95,1.95-.88,1.96-1.95,1.96-1.96-.88-1.96-1.96"/><path class="cls-11" d="M123.09,170.12c0-1.07,.88-1.95,1.96-1.95s1.95,.88,1.95,1.95-.88,1.96-1.95,1.96-1.96-.88-1.96-1.96"/><path class="cls-18" d="M131.14,110.31c0-1.07,.88-1.95,1.96-1.95s1.95,.88,1.95,1.95-.88,1.96-1.95,1.96-1.96-.88-1.96-1.96"/><path class="cls-11" d="M131.14,110.31c0-1.07,.88-1.95,1.96-1.95s1.95,.88,1.95,1.95-.88,1.96-1.95,1.96-1.96-.88-1.96-1.96"/><path class="cls-2" d="M244.33,37.21c0-1.07,.88-1.95,1.95-1.95s1.96,.88,1.96,1.95-.88,1.96-1.96,1.96-1.95-.88-1.95-1.96"/><path class="cls-10" d="M244.33,37.21c0-1.07,.88-1.95,1.95-1.95s1.96,.88,1.96,1.95-.88,1.96-1.96,1.96-1.95-.88-1.95-1.96"/><path class="cls-2" d="M248.18,18.94c0-1.08,.88-1.96,1.95-1.96s1.96,.88,1.96,1.96-.88,1.95-1.96,1.95-1.95-.88-1.95-1.95"/><path class="cls-10" d="M248.18,18.94c0-1.08,.88-1.96,1.95-1.96s1.96,.88,1.96,1.96-.88,1.95-1.96,1.95-1.95-.88-1.95-1.95"/><path class="cls-18" d="M129.94,63.79c0-1.07,.88-1.95,1.95-1.95s1.96,.88,1.96,1.95-.88,1.96-1.96,1.96-1.95-.88-1.95-1.96"/><path class="cls-11" d="M129.94,63.79c0-1.07,.88-1.95,1.95-1.95s1.96,.88,1.96,1.95-.88,1.96-1.96,1.96-1.95-.88-1.95-1.96"/><path class="cls-2" d="M240.85,278.11c0-1.07,.88-1.95,1.96-1.95s1.95,.88,1.95,1.95-.88,1.96-1.95,1.96-1.96-.88-1.96-1.96"/><path class="cls-10" d="M240.85,278.11c0-1.07,.88-1.95,1.96-1.95s1.95,.88,1.95,1.95-.88,1.96-1.95,1.96-1.96-.88-1.96-1.96"/><path class="cls-2" d="M249.5,68.78c0-1.08,.88-1.96,1.96-1.96s1.95,.88,1.95,1.96-.88,1.95-1.95,1.95-1.96-.88-1.96-1.95"/><path class="cls-10" d="M249.5,68.78c0-1.08,.88-1.96,1.96-1.96s1.95,.88,1.95,1.96-.88,1.95-1.95,1.95-1.96-.88-1.96-1.95"/><path class="cls-18" d="M127.39,23.92c0-1.07,.88-1.95,1.96-1.95s1.95,.88,1.95,1.95-.88,1.96-1.95,1.96-1.96-.88-1.96-1.96"/><path class="cls-11" d="M127.39,23.92c0-1.07,.88-1.95,1.96-1.95s1.95,.88,1.95,1.95-.88,1.96-1.95,1.96-1.96-.88-1.96-1.96"/><path class="cls-18" d="M118.98,105.33c0-1.08,.88-1.96,1.95-1.96s1.96,.88,1.96,1.96-.88,1.95-1.96,1.95-1.95-.88-1.95-1.95"/><path class="cls-11" d="M118.98,105.33c0-1.08,.88-1.96,1.95-1.96s1.96,.88,1.96,1.96-.88,1.95-1.96,1.95-1.95-.88-1.95-1.95"/><path class="cls-2" d="M247.49,196.71c0-1.08,.88-1.96,1.96-1.96s1.95,.88,1.95,1.96-.88,1.95-1.95,1.95-1.96-.88-1.96-1.95"/><path class="cls-10" d="M247.49,196.71c0-1.08,.88-1.96,1.96-1.96s1.95,.88,1.95,1.96-.88,1.95-1.95,1.95-1.96-.88-1.96-1.95"/><path class="cls-18" d="M125.56,32.23c0-1.08,.88-1.96,1.96-1.96s1.95,.88,1.95,1.96-.88,1.95-1.95,1.95-1.96-.88-1.96-1.95"/><path class="cls-11" d="M125.56,32.23c0-1.08,.88-1.96,1.96-1.96s1.95,.88,1.95,1.96-.88,1.95-1.95,1.95-1.96-.88-1.96-1.95"/><path class="cls-18" d="M125.23,88.71c0-1.07,.88-1.95,1.95-1.95s1.96,.88,1.96,1.95-.88,1.96-1.96,1.96-1.95-.88-1.95-1.96"/><path class="cls-11" d="M125.23,88.71c0-1.07,.88-1.95,1.95-1.95s1.96,.88,1.96,1.95-.88,1.96-1.96,1.96-1.95-.88-1.95-1.96"/><path class="cls-2" d="M244.19,48.84c0-1.07,.88-1.95,1.95-1.95s1.96,.88,1.96,1.95-.88,1.96-1.96,1.96-1.95-.88-1.95-1.96"/><path class="cls-10" d="M244.19,48.84c0-1.07,.88-1.95,1.95-1.95s1.96,.88,1.96,1.95-.88,1.96-1.96,1.96-1.95-.88-1.95-1.96"/><path class="cls-2" d="M249.26,78.75c0-1.08,.88-1.96,1.96-1.96s1.95,.88,1.95,1.96-.88,1.95-1.95,1.95-1.96-.88-1.96-1.95"/><path class="cls-10" d="M249.26,78.75c0-1.08,.88-1.96,1.96-1.96s1.95,.88,1.95,1.96-.88,1.95-1.95,1.95-1.96-.88-1.96-1.95"/><path class="cls-2" d="M255.42,229.93c0-1.07,.88-1.95,1.96-1.95s1.95,.88,1.95,1.95-.88,1.96-1.95,1.96-1.96-.88-1.96-1.96"/><path class="cls-10" d="M255.42,229.93c0-1.07,.88-1.95,1.96-1.95s1.95,.88,1.95,1.95-.88,1.96-1.95,1.96-1.96-.88-1.96-1.96"/><path class="cls-18" d="M130.39,118.62c0-1.08,.88-1.95,1.95-1.95s1.96,.87,1.96,1.95-.88,1.95-1.96,1.95-1.95-.87-1.95-1.95"/><path class="cls-11" d="M130.39,118.62c0-1.08,.88-1.95,1.95-1.95s1.96,.87,1.96,1.95-.88,1.95-1.96,1.95-1.95-.87-1.95-1.95"/><path class="cls-18" d="M119,175.11c0-1.08,.88-1.96,1.96-1.96s1.95,.88,1.95,1.96-.88,1.95-1.95,1.95-1.96-.88-1.96-1.95"/><path class="cls-11" d="M119,175.11c0-1.08,.88-1.96,1.96-1.96s1.95,.88,1.95,1.96-.88,1.95-1.95,1.95-1.96-.88-1.96-1.95"/><path class="cls-2" d="M239.44,80.41c0-1.08,.88-1.96,1.95-1.96s1.96,.88,1.96,1.96-.88,1.95-1.96,1.95-1.95-.88-1.95-1.95"/><path class="cls-10" d="M239.44,80.41c0-1.08,.88-1.96,1.95-1.96s1.96,.88,1.96,1.96-.88,1.95-1.96,1.95-1.95-.88-1.95-1.95"/><path class="cls-2" d="M239.6,38.87c0-1.07,.87-1.95,1.95-1.95s1.95,.88,1.95,1.95-.88,1.96-1.95,1.96-1.95-.88-1.95-1.96"/><path class="cls-10" d="M239.6,38.87c0-1.07,.87-1.95,1.95-1.95s1.95,.88,1.95,1.95-.88,1.96-1.95,1.96-1.95-.88-1.95-1.96"/><line class="cls-6" x1="114.45" y1="23.92" x2="138.4" y2="23.92"/><line class="cls-6" x1="126.43" y1="23.92" x2="126.43" y2="175.11"/><line class="cls-6" x1="114.45" y1="175.11" x2="138.4" y2="175.11"/><line class="cls-6" x1="234.2" y1="18.94" x2="258.15" y2="18.94"/><line class="cls-6" x1="246.18" y1="18.94" x2="246.18" y2="278.11"/><line class="cls-6" x1="234.2" y1="278.11" x2="258.15" y2="278.11"/></g><line class="cls-7" x1="54.58" y1="291.07" x2="54.58" y2="5.98"/><text class="cls-13" transform="translate(25.85 238.28)"><tspan x="0" y="0">250</tspan></text><text class="cls-13" transform="translate(25.85 155.21)"><tspan x="0" y="0">300</tspan></text><text class="cls-13" transform="translate(25.85 72.14)"><tspan x="0" y="0">350</tspan></text><line class="cls-4" x1="51.59" y1="233.26" x2="54.58" y2="233.26"/><line class="cls-4" x1="51.59" y1="150.19" x2="54.58" y2="150.19"/><line class="cls-4" x1="51.59" y1="67.12" x2="54.58" y2="67.12"/><line class="cls-7" x1="54.58" y1="291.07" x2="318.02" y2="291.07"/><line class="cls-4" x1="126.43" y1="294.06" x2="126.43" y2="291.07"/><line class="cls-4" x1="246.18" y1="294.06" x2="246.18" y2="291.07"/><text class="cls-15" transform="translate(107.68 329.42) rotate(-45)"><tspan x="0" y="0">Sham</tspan></text><text class="cls-15" transform="translate(224.87 331.97) rotate(-45)"><tspan x="0" y="0">Stro</tspan><tspan class="cls-16" x="25.68" y="0">k</tspan><tspan x="32.4" y="0">e</tspan></text><text class="cls-14" transform="translate(18.9 185.53) rotate(-90)"><tspan x="0" y="0">Richness</tspan></text></svg>